<svg id="Слой_1" data-name="Слой 1" xmlns="http://www.w3.org/2000/svg" xmlns:xlink="http://www.w3.org/1999/xlink" viewBox="0 0 1063.04 440.43"><defs><style>.cls-1{fill:none;}.cls-2{clip-path:url(#clip-path);}.cls-3{fill:#009fe3;}.cls-4{fill:#1d1d1b;}</style><clipPath id="clip-path" transform="translate(-63.76 -53.62)"><rect class="cls-1" width="1190.55" height="547.66"/></clipPath></defs><title>llogo</title><g class="cls-2"><path class="cls-3" d="M297.2,53.62H660.71l-86.2,150Q538.92,268,486.78,272.33H265.3L208.55,368H63.76L215.91,105.15q23.93-51.54,81.29-51.54M388,119.87q-51.54,0-88.35,83.75l4.91,2.46H422.36q14.1-12.89,51.54-83.75L469,119.87Z" transform="translate(-63.76 -53.62)"/><path class="cls-3" d="M764.52,54.22h362.28l-88,151.86L963.6,238.89l53.07,4L943,367.73H531.69L686,100.86q23.93-46.62,78.53-46.64M752.24,245.34l-34.35,58.58H835.37l37.12-58.58Zm104.6-124.85q-42.95,0-68.41,58.89l121.78.31,33.44-59.2Z" transform="translate(-63.76 -53.62)"/><path class="cls-4" d="M157.91,399.44q12.84,0,19.06,5.75t6.22,15.88v12.84q0,10.14-6.22,15.88t-19.06,5.74H85.07V494H64.66v-94.6ZM85.07,417v21h72.84q4.87,0,4.87-4.05V421.07q0-4.06-4.87-4.06Z" transform="translate(-63.76 -53.62)"/><path class="cls-4" d="M216.82,424.17q6.9-8.23,19.46-8.24h43.25q10.14,0,17,5.74a18.47,18.47,0,0,1,6.82,14.81V494H283.85V436.48a4.58,4.58,0,0,0-1.15-3.18,4,4,0,0,0-3.17-1.28H221.15a4.25,4.25,0,0,0-3,1.22,3.65,3.65,0,0,0-1.28,2.7V494H197.37V388.63h19.46Z" transform="translate(-63.76 -53.62)"/><path class="cls-4" d="M324.86,451.81q6.83-5.21,17.23-5.2h59.46V436.48a4.58,4.58,0,0,0-1.15-3.18,3.86,3.86,0,0,0-3-1.28H323V419.58l3.24-3.64h70.95q10.14,0,17,5.74A18.48,18.48,0,0,1,421,436.48V494H404.25l-1.76-9.33q-6.75,9.33-20.4,9.33h-40Q332,494,325,488.29a18.31,18.31,0,0,1-7-14.8v-7.56a16.82,16.82,0,0,1,6.82-14.13M397.22,478a4,4,0,0,0,3.11-1.35,4.48,4.48,0,0,0,1.21-3.11v-12H341.82a4,4,0,0,0-3.11,1.34,4.54,4.54,0,0,0-1.22,3.12v7.56a4.59,4.59,0,0,0,1.15,3.18,4.07,4.07,0,0,0,3.18,1.28Z" transform="translate(-63.76 -53.62)"/><path class="cls-4" d="M529.39,432h-67a4,4,0,0,0-3.11,1.34,4.53,4.53,0,0,0-1.22,3.12V494H438.57V415.93h16.89l1.62,9.33q6.76-9.33,20.41-9.33h51.89Z" transform="translate(-63.76 -53.62)"/><path class="cls-4" d="M562.9,433.36a4.53,4.53,0,0,0-1.22,3.12V494H542.22V415.93h16.89l1.62,9.32q6.76-9.33,20.41-9.32H608.3a26.67,26.67,0,0,1,12.91,3.1,19.68,19.68,0,0,1,8.44,8.38,21.36,21.36,0,0,1,8.78-8.38,27,27,0,0,1,13-3.1h27.17q10.13,0,17,5.74a18.47,18.47,0,0,1,6.82,14.8V494H682.9V436.48a4.61,4.61,0,0,0-1.15-3.18,4,4,0,0,0-3.17-1.28h-42.3a4,4,0,0,0-3.11,1.34,4.52,4.52,0,0,0-1.22,3.12V494H612.62V436.48a4.6,4.6,0,0,0-1.15-3.18A4,4,0,0,0,608.3,432H566a4,4,0,0,0-3.1,1.34" transform="translate(-63.76 -53.62)"/><path class="cls-4" d="M739.38,424.17q6.9-8.23,19.46-8.24h43.24q10.14,0,17,5.74a18.47,18.47,0,0,1,6.82,14.81v37a18.44,18.44,0,0,1-6.82,14.8q-6.82,5.75-17,5.75H758.84q-13.65,0-20.41-9.33L736.81,494H719.92V388.63h19.46Zm0,49.32a4.49,4.49,0,0,0,1.22,3.11,4,4,0,0,0,3.1,1.35h58.38a4.05,4.05,0,0,0,3.17-1.28,4.58,4.58,0,0,0,1.15-3.18v-37a4.58,4.58,0,0,0-1.15-3.18,4,4,0,0,0-3.17-1.28H743.7a4.25,4.25,0,0,0-3,1.21,3.65,3.65,0,0,0-1.28,2.7Z" transform="translate(-63.76 -53.62)"/><path class="cls-4" d="M862.88,409H843.43v-20.4h19.46Zm0,85H843.43V415.93h19.46Z" transform="translate(-63.76 -53.62)"/><rect class="cls-4" x="818.04" y="335.02" width="19.46" height="105.41"/><path class="cls-4" d="M939.64,409H920.18v-20.4h19.46Zm0,85H920.18V415.93h19.46Z" transform="translate(-63.76 -53.62)"/><path class="cls-4" d="M979.23,433.36a4.53,4.53,0,0,0-1.22,3.12V494H958.56V415.93h16.89l1.62,9.32q6.76-9.33,20.41-9.32h27.16a26.66,26.66,0,0,1,12.91,3.1,19.68,19.68,0,0,1,8.44,8.38,21.36,21.36,0,0,1,8.78-8.38,27,27,0,0,1,13-3.1h27.17q10.13,0,17,5.74a18.47,18.47,0,0,1,6.82,14.8V494h-19.46V436.48a4.61,4.61,0,0,0-1.15-3.18,4,4,0,0,0-3.17-1.28h-42.3a4,4,0,0,0-3.11,1.34,4.52,4.52,0,0,0-1.21,3.12V494H1029V436.48a4.6,4.6,0,0,0-1.14-3.18,4,4,0,0,0-3.18-1.28h-42.3a4,4,0,0,0-3.1,1.34" transform="translate(-63.76 -53.62)"/></g></svg>